<?xml version="1.0" encoding="UTF-8"?>
<svg version="1.1" xmlns="http://www.w3.org/2000/svg" width="225" height="225">
<path d="M0 0 C74.25 0 148.5 0 225 0 C225 74.25 225 148.5 225 225 C150.75 225 76.5 225 0 225 C0 150.75 0 76.5 0 0 Z " fill="#FEFEFE" transform="translate(0,0)"/>
<path d="M0 0 C0.85191422 -0.00287018 1.70382843 -0.00574036 2.58155823 -0.00869751 C4.38291081 -0.01073852 6.18428554 -0.00520608 7.9855957 0.00732422 C10.740252 0.02335802 13.49343668 0.00748744 16.24804688 -0.01171875 C17.99870115 -0.00973594 19.74935451 -0.00589147 21.5 0 C22.32302109 -0.00607269 23.14604218 -0.01214539 23.9940033 -0.0184021 C25.15023949 -0.00421738 25.15023949 -0.00421738 26.32983398 0.01025391 C27.34218361 0.01383408 27.34218361 0.01383408 28.37498474 0.01748657 C31.05929202 0.54420853 32.33719055 1.51270958 34.31640625 3.3984375 C34.81977081 5.88316345 34.81977081 5.88316345 34.82434082 8.90209961 C34.83562012 10.04621307 34.84689941 11.19032654 34.85852051 12.36911011 C34.85042358 13.62531158 34.84232666 14.88151306 34.83398438 16.17578125 C34.83940413 17.51124841 34.84652597 18.84670959 34.85522461 20.18215942 C34.87347887 23.81031544 34.86638214 27.4380171 34.85370827 31.06618118 C34.84359131 34.86045825 34.8529703 38.65469604 34.85925293 42.44897461 C34.86653318 48.82119746 34.85693187 55.19323497 34.83789062 61.56542969 C34.81612099 68.93586677 34.82317211 76.30586129 34.84519625 83.67628765 C34.86333963 90.00079738 34.86591383 96.32517377 34.85544157 102.64970112 C34.84920072 106.42864043 34.84838701 110.20737162 34.86158752 113.98629761 C34.87313019 117.53887556 34.86515031 121.09088216 34.8420105 124.64339828 C34.83418559 126.57151246 34.84609289 128.49967489 34.85852051 130.42776489 C34.84724121 131.57187836 34.83596191 132.71599182 34.82434082 133.89477539 C34.82283272 134.89102432 34.82132462 135.88727325 34.81977081 136.91371155 C34.31640625 139.3984375 34.31640625 139.3984375 32.40599918 141.21818638 C30.15264791 142.49093206 28.89359003 142.7819658 26.32983398 142.80249023 C25.17359779 142.82151649 25.17359779 142.82151649 23.9940033 142.84092712 C23.17098221 142.83799149 22.34796112 142.83505585 21.5 142.83203125 C20.64712906 142.8372731 19.79425812 142.84251495 18.9155426 142.84791565 C17.11598803 142.85432877 15.3163915 142.85300803 13.5168457 142.84448242 C10.75982454 142.8359558 8.00486426 142.86476856 5.24804688 142.89648438 C3.49869854 142.89809607 1.74934653 142.89751946 0 142.89453125 C-0.82504532 142.90576523 -1.65009064 142.91699921 -2.50013733 142.92857361 C-8.21369204 142.85875397 -8.21369204 142.85875397 -10.40085793 140.71620274 C-11.97239193 137.87661035 -12.06083704 136.050962 -12.06454468 132.81248474 C-12.07300415 131.67541077 -12.08146362 130.53833679 -12.09017944 129.36680603 C-12.08410675 128.12355057 -12.07803406 126.8802951 -12.07177734 125.59936523 C-12.0770343 124.28686798 -12.08229126 122.97437073 -12.08770752 121.62210083 C-12.1013806 118.02505897 -12.096083 114.42827533 -12.08657026 110.83122897 C-12.07897516 107.06765977 -12.08601871 103.30411267 -12.09072876 99.5405426 C-12.09618608 93.22140533 -12.08899465 86.90237326 -12.07470703 80.58325195 C-12.05837343 73.27477548 -12.06367415 65.96654998 -12.08018625 58.65807956 C-12.0937934 52.38452136 -12.09572479 46.11103878 -12.08787024 39.83747059 C-12.08319036 36.08987726 -12.08257758 32.34240198 -12.09247971 28.59481621 C-12.10274256 24.41909756 -12.08852467 20.24381282 -12.07177734 16.06811523 C-12.07785004 14.82283554 -12.08392273 13.57755585 -12.09017944 12.29454041 C-12.08171997 11.16028625 -12.0732605 10.0260321 -12.06454468 8.85740662 C-12.0634136 7.86983085 -12.06228252 6.88225508 -12.06111717 5.86475277 C-11.68359375 3.3984375 -11.68359375 3.3984375 -10.40085793 1.5815134 C-7.330831 -0.53352221 -3.6020365 -0.02651256 0 0 Z " fill="#780AD1" transform="translate(174.68359375,39.6015625)"/>
<path d="M0 0 C3.60653591 1.10034206 6.88282615 2.70503917 10.23144531 4.41015625 C10.93227234 4.76150635 11.63309937 5.11285645 12.35516357 5.47485352 C13.82901058 6.21512658 15.30142037 6.95826723 16.77246094 7.70410156 C19.03172297 8.84938115 21.29519492 9.98596276 23.55957031 11.12109375 C24.99211373 11.84194784 26.42441414 12.56328508 27.85644531 13.28515625 C28.53555969 13.62683838 29.21467407 13.96852051 29.91436768 14.32055664 C34.66110517 16.73044111 34.66110517 16.73044111 35.77832031 17.84765625 C36.23922355 22.83466592 35.10637527 25.91280526 32.84863281 30.328125 C32.38996323 31.236763 32.38996323 31.236763 31.92202759 32.16375732 C30.92725911 34.12697517 29.91559462 36.08091604 28.90332031 38.03515625 C28.20866733 39.39802588 27.51498862 40.76139252 26.82226562 42.12524414 C22.74695563 50.1260997 18.57699066 58.0766187 14.34716797 65.99682617 C10.63478897 72.99772987 7.26246592 80.15065106 3.8762207 87.31347656 C0.67465722 94.05491162 -2.70019653 100.67435613 -6.22143555 107.25341797 C-10.88282508 116.00101273 -15.26745079 124.88772806 -19.66430664 133.77026367 C-20.24140381 134.93275635 -20.81850098 136.09524902 -21.41308594 137.29296875 C-21.9307251 138.33984863 -22.44836426 139.38672852 -22.98168945 140.46533203 C-24.22167969 142.84765625 -24.22167969 142.84765625 -25.22167969 143.84765625 C-31.49073568 143.54444701 -35.99000584 141.17329553 -41.40917969 138.16015625 C-43.087014 137.25028509 -44.76539988 136.34143032 -46.44433594 135.43359375 C-47.25660645 134.99112305 -48.06887695 134.54865234 -48.90576172 134.09277344 C-52.94053502 131.92354048 -57.05185394 129.91822202 -61.16699219 127.90625 C-63.22167969 126.84765625 -63.22167969 126.84765625 -64.22167969 125.84765625 C-64.54526026 121.44449456 -63.96621118 118.58674739 -62.0019989 114.65985107 C-61.50989929 113.66162323 -61.01779968 112.66339539 -60.51078796 111.63491821 C-59.96380753 110.55624481 -59.41682709 109.47757141 -58.85327148 108.36621094 C-58.2826297 107.21762604 -57.71198792 106.06904114 -57.12405396 104.88565063 C-55.56261581 101.74400438 -53.98626587 98.61006459 -52.40665793 95.47752285 C-50.75479717 92.19646949 -49.11531124 88.9092407 -47.47407532 85.62286377 C-44.7173537 80.10765631 -41.95111446 74.59730617 -39.17895508 69.08984375 C-35.97346018 62.72122864 -32.78218461 56.34564792 -29.59861821 49.96604609 C-26.5349543 43.82733406 -23.46224425 37.69319586 -20.38504982 31.56125641 C-19.07569957 28.95184767 -17.76937921 26.34095502 -16.46542931 23.72884369 C-14.64573031 20.08498316 -12.81276855 16.44795633 -10.97827148 12.81152344 C-10.43736374 11.72475311 -9.89645599 10.63798279 -9.3391571 9.51828003 C-8.83859802 8.53133148 -8.33803894 7.54438293 -7.8223114 6.52752686 C-7.38999049 5.66699078 -6.95766958 4.8064547 -6.51224804 3.91984177 C-4.7947963 1.16223608 -3.3523246 -0.22987369 0 0 Z " fill="#E60EF8" transform="translate(68.2216796875,39.15234375)"/>
<path d="M0 0 C5.94179249 0.15293844 11.71955669 1.51619091 17.51196289 2.75830078 C19.48459221 3.18057018 21.4596907 3.58922063 23.43554688 3.99609375 C35.76044153 6.58881146 35.76044153 6.58881146 38.79296875 8.3046875 C40.52159196 12.47727513 39.40937629 16.51830485 38.4921875 20.78515625 C38.3405011 21.52934814 38.1888147 22.27354004 38.03253174 23.0402832 C37.523895 25.52613152 37.00194527 28.00900382 36.48046875 30.4921875 C36.1161911 32.26385751 35.75301703 34.03575474 35.39086914 35.80786133 C34.61020186 39.62402816 33.82507764 43.43924049 33.03710938 47.25390625 C31.1111623 56.59744451 29.23935359 65.95187547 27.36807251 75.30648804 C26.73139386 78.48756531 26.09265527 81.66822466 25.45385742 84.84887695 C23.47076963 94.74460131 21.52084245 104.64466758 19.671875 114.56640625 C19.42799294 115.8728434 19.42799294 115.8728434 19.17918396 117.20567322 C18.42609081 121.24893995 17.68117572 125.29347446 16.94897461 129.34057617 C16.68874893 130.75311265 16.42842025 132.16563015 16.16796875 133.578125 C15.83925781 135.39449463 15.83925781 135.39449463 15.50390625 137.24755859 C14.87746081 139.94136002 14.29580429 141.99491411 12.79296875 144.3046875 C7.03362358 146.44333685 0.94391089 144.35177239 -4.83203125 143.0546875 C-6.43703491 142.70615723 -6.43703491 142.70615723 -8.07446289 142.35058594 C-28.67085722 137.84086153 -28.67085722 137.84086153 -30.20703125 136.3046875 C-30.51190736 129.73363431 -29.72797626 124.00220448 -28.26953125 117.6171875 C-25.6602263 105.64887999 -23.29203408 93.64147875 -20.95703125 81.6171875 C-17.77233711 65.25401109 -14.5450993 48.89992073 -11.26953125 32.5546875 C-11.07830688 31.60042877 -10.88708252 30.64617004 -10.69006348 29.66299438 C-8.27375457 17.60850979 -8.27375457 17.60850979 -7.66555786 14.6217041 C-7.3336245 12.94438572 -7.02010194 11.26338917 -6.71798706 9.58044434 C-6.46977707 8.23109802 -6.46977707 8.23109802 -6.21655273 6.85449219 C-6.07080307 6.03261414 -5.92505341 5.21073608 -5.77488708 4.36395264 C-4.78831723 0.78626832 -3.63133977 0.34499939 0 0 Z " fill="#9328DB" transform="translate(118.20703125,38.6953125)"/>
<path d="M0 0 C2.52884276 1.13525435 4.98635856 2.30642238 7.453125 3.5625 C8.15395203 3.9138501 8.85477905 4.2652002 9.57684326 4.62719727 C11.05069027 5.36747033 12.52310005 6.11061098 13.99414062 6.85644531 C16.25340266 8.0017249 18.51687461 9.13830651 20.78125 10.2734375 C22.21379342 10.99429159 23.64609383 11.71562883 25.078125 12.4375 C26.09679657 12.95002319 26.09679657 12.95002319 27.13604736 13.47290039 C31.88278486 15.88278486 31.88278486 15.88278486 33 17 C33.47590386 22.04207128 32.2810569 25.15794881 30 29.62109375 C29.68825333 30.23883163 29.37650665 30.85656952 29.05531311 31.49302673 C28.04844624 33.48065936 27.02470141 35.45901202 26 37.4375 C25.30825039 38.79396837 24.61741434 40.15090301 23.92749023 41.50830078 C19.39704331 50.39668659 14.80210209 59.25495786 10 68 C9.505 67.01 9.505 67.01 9 66 C8.34 66 7.68 66 7 66 C7 65.34 7 64.68 7 64 C7.66 64 8.32 64 9 64 C8.98839844 63.01257813 8.97679688 62.02515625 8.96484375 61.0078125 C8.95582031 59.72648437 8.94679688 58.44515625 8.9375 57.125 C8.92589844 55.84882812 8.91429688 54.57265625 8.90234375 53.2578125 C9 50 9 50 10 48 C11.98 48.33 13.96 48.66 16 49 C16.90413673 45.16275828 17.10576898 41.62497726 17.0625 37.6875 C17.05347656 36.61886719 17.04445313 35.55023438 17.03515625 34.44921875 C17.02355469 33.64097656 17.01195313 32.83273438 17 32 C19.64 32 22.28 32 25 32 C25 27.71 25 23.42 25 19 C25.99 19 26.98 19 28 19 C27.505 18.01 27.505 18.01 27 17 C24.67493341 16.60843772 24.67493341 16.60843772 22 16.5 C19.25 16.34375 19.25 16.34375 17 16 C16.67 15.34 16.34 14.68 16 14 C15.401875 14.33 14.80375 14.66 14.1875 15 C12 16 12 16 9 16 C9 13.36 9 10.72 9 8 C4.38 8 -0.24 8 -5 8 C-5.99 9.98 -6.98 11.96 -8 14 C-7.67 14.66 -7.34 15.32 -7 16 C-11.75 16.125 -11.75 16.125 -14 15 C-12.4763905 9.59811177 -10.07730789 4.685004 -7 0 C-4.2104455 -1.39477725 -3.00634662 -0.83090501 0 0 Z " fill="#B928EA" transform="translate(71,40)"/>
<path d="M0 0 C0.99 0 1.98 0 3 0 C4.73668473 19.60927472 5.26657675 38.99568655 5.1373291 58.66345215 C5.11632393 62.21831728 5.10762257 65.77321482 5.09765625 69.328125 C5.07663944 76.21882388 5.04282709 83.10940279 5 90 C6.90168945 89.51104248 6.90168945 89.51104248 8.84179688 89.01220703 C13.05074688 87.93001259 16.66303623 87.84510844 21 88 C21 88.33 21 88.66 21 89 C22.66289062 89.07347656 22.66289062 89.07347656 24.359375 89.1484375 C25.82294065 89.22349215 27.28648112 89.29903881 28.75 89.375 C29.47960937 89.4059375 30.20921875 89.436875 30.9609375 89.46875 C37.93630558 89.84922462 37.93630558 89.84922462 41 92 C41.33 92.66 41.66 93.32 42 94 C36.50078594 94.09881786 31.00208765 94.17144379 25.50219727 94.21972656 C23.63101196 94.23985207 21.75988961 94.26715549 19.88891602 94.30175781 C17.20052568 94.35023581 14.51296612 94.37295872 11.82421875 94.390625 C10.56782845 94.42159271 10.56782845 94.42159271 9.28605652 94.45318604 C3.52911837 94.45541425 3.52911837 94.45541425 1.27624512 92.51635742 C-0.58526035 88.84604908 -0.39300266 85.3048652 -0.34057617 81.28417969 C-0.34101425 80.40577423 -0.34145233 79.52736877 -0.34190369 78.62234497 C-0.33981542 75.72196139 -0.31648248 72.82215747 -0.29296875 69.921875 C-0.28737293 67.90977291 -0.28310277 65.89766672 -0.28010559 63.88555908 C-0.26865571 58.59184467 -0.23918716 53.29837752 -0.20599365 48.00476074 C-0.17529594 42.60216619 -0.16160088 37.19953165 -0.14648438 31.796875 C-0.11431772 21.19780808 -0.06311951 10.59892461 0 0 Z " fill="#9019DC" transform="translate(163,88)"/>
<path d="M0 0 C0.33 0 0.66 0 1 0 C1 13.53 1 27.06 1 41 C10.99151842 41.73778684 10.99151842 41.73778684 21 42 C21 42.66 21 43.32 21 44 C21.87011719 43.89171875 21.87011719 43.89171875 22.7578125 43.78125 C27.20087574 43.2533613 31.51631578 42.88503374 36 43 C36.495 45.475 36.495 45.475 37 48 C33.07126793 50.61915472 31.55796443 49.85993181 27 49 C25.84991455 48.79125244 24.6998291 48.58250488 23.51489258 48.36743164 C20.30049744 47.73946598 17.08653254 47.10971286 13.87426758 46.47094727 C11.80849588 46.06170676 9.7412248 45.66070489 7.67382812 45.25976562 C6.35146213 44.99790216 5.02919292 44.73554939 3.70703125 44.47265625 C1.92002808 44.12086304 1.92002808 44.12086304 0.09692383 43.76196289 C-2.56762777 43.10638027 -4.63565482 42.35799223 -7 41 C-7.29139567 33.64609351 -6.21662896 27.10430118 -4.625 19.9375 C-4.29242188 18.38192383 -4.29242188 18.38192383 -3.953125 16.79492188 C-2.73995473 11.1679527 -1.43225561 5.57508841 0 0 Z " fill="#AB2CE7" transform="translate(95,134)"/>
<path d="M0 0 C6.64530561 0.42872939 13.00451484 1.52504507 19.5 2.9375 C20.30163574 3.10733398 21.10327148 3.27716797 21.92919922 3.45214844 C27.75720386 4.75720386 27.75720386 4.75720386 30 7 C29.57899359 12.41002354 28.55639976 17.70121863 27.51171875 23.0234375 C27.36847168 23.76354568 27.22522461 24.50365387 27.07763672 25.26618958 C26.6175856 27.63645631 26.15309041 30.00581552 25.6875 32.375 C25.53004303 33.17870026 25.37258606 33.98240051 25.21035767 34.81045532 C21.50437304 53.70755093 21.50437304 53.70755093 19.6875 62.1875 C19.54078857 62.8976123 19.39407715 63.60772461 19.24291992 64.33935547 C18.89535285 65.90918319 18.45861948 67.45895162 18 69 C17.01 69.495 17.01 69.495 16 70 C15.94548286 67.95863605 15.90697515 65.91684144 15.875 63.875 C15.85179687 62.73804688 15.82859375 61.60109375 15.8046875 60.4296875 C16.00327891 56.94242233 16.7475199 54.2446138 18 51 C17.34 51 16.68 51 16 51 C16 47.04 16 43.08 16 39 C17.32 39 18.64 39 20 39 C20.33 38.01 20.66 37.02 21 36 C21.66 36 22.32 36 23 36 C23.64187152 28.79040736 24.11408628 21.67753755 23.9375 14.4375 C24.00369862 11.85575371 24.42546106 9.51360788 25 7 C21.00967159 6.39735687 21.00967159 6.39735687 17 6 C16.67 6.33 16.34 6.66 16 7 C13.30345146 7.07319621 10.63308542 7.09242537 7.9375 7.0625 C7.17888672 7.05798828 6.42027344 7.05347656 5.63867188 7.04882812 C3.75908129 7.0370068 1.87953101 7.01907078 0 7 C-1.125 2.25 -1.125 2.25 0 0 Z " fill="#7825CD" transform="translate(128,41)"/>
<path d="M0 0 C2.31 0 4.62 0 7 0 C7 0.66 7 1.32 7 2 C8.98 1.34 10.96 0.68 13 0 C13.5534764 2.07553648 14 3.84365964 14 6 C14.99 6 15.98 6 17 6 C17.66 6.66 18.32 7.32 19 8 C18.828125 10.46875 18.828125 10.46875 18.25 13.5 C18.05148438 14.56734375 17.85296875 15.6346875 17.6484375 16.734375 C17.43445313 17.81203125 17.22046875 18.8896875 17 20 C16.80664062 20.99515625 16.61328125 21.9903125 16.4140625 23.015625 C15.95456679 25.34640032 15.48369539 27.67414558 15 30 C14.34 29.34 13.68 28.68 13 28 C11.35 28.66 9.7 29.32 8 30 C7.67 29.67 7.34 29.34 7 29 C5.68 30.32 4.36 31.64 3 33 C4.59467834 27.71662125 6.96238199 23.02174225 9.609375 18.2109375 C11.86852111 13.90147392 12 12.19683678 12 7 C8.04 5.02 4.08 3.04 0 1 C0 0.67 0 0.34 0 0 Z " fill="#F8F3F8" transform="translate(91,50)"/>
<path d="M0 0 C1.98 0 3.96 0 6 0 C6 0.66 6 1.32 6 2 C6.66 2 7.32 2 8 2 C9 5 9 5 8.2590332 6.95776367 C7.86031006 7.68713135 7.46158691 8.41649902 7.05078125 9.16796875 C6.61443359 9.97943359 6.17808594 10.79089844 5.72851562 11.62695312 C5.26123047 12.47193359 4.79394531 13.31691406 4.3125 14.1875 C3.41201115 15.84724996 2.51226392 17.50740251 1.61328125 19.16796875 C1.1745166 19.97282715 0.73575195 20.77768555 0.28369141 21.60693359 C-1.55494128 25.03452537 -3.28155302 28.51078798 -5 32 C-5.66 32 -6.32 32 -7 32 C-7.33 30.02 -7.66 28.04 -8 26 C-7.34 26.33 -6.68 26.66 -6 27 C-6 24.36 -6 21.72 -6 19 C-5.34 19 -4.68 19 -4 19 C-3.67 18.01 -3.34 17.02 -3 16 C-1.35 15.67 0.3 15.34 2 15 C2 14.34 2 13.68 2 13 C1.34 13 0.68 13 0 13 C0 8.71 0 4.42 0 0 Z " fill="#D818EF" transform="translate(72,104)"/>
<path d="M0 0 C0.144375 0.61875 0.28875 1.2375 0.4375 1.875 C0.93152225 4.03258322 0.93152225 4.03258322 2 6 C2.09809858 8.67751418 2.1390397 11.32309717 2.125 14 C2.12886719 14.73734375 2.13273437 15.4746875 2.13671875 16.234375 C2.1266598 21.7466804 2.1266598 21.7466804 1 24 C0.360625 24.12375 -0.27875 24.2475 -0.9375 24.375 C-3.19851273 24.80939427 -3.19851273 24.80939427 -4.25 27.0625 C-4.4975 27.701875 -4.745 28.34125 -5 29 C-5.66 29 -6.32 29 -7 29 C-5.35 20.09 -3.7 11.18 -2 2 C-1.34 2 -0.68 2 0 2 C0 1.34 0 0.68 0 0 Z " fill="#A42AE1" transform="translate(102,104)"/>
<path d="M0 0 C2.64 1.32 5.28 2.64 8 4 C8.69071435 10.00537752 6.35277376 13.82053598 3.5 18.875 C3.07074219 19.65875 2.64148438 20.4425 2.19921875 21.25 C1.14384269 23.1731297 0.07737013 25.08913252 -1 27 C-1.33 26.34 -1.66 25.68 -2 25 C-1.0625 22.875 -1.0625 22.875 0 21 C-0.66 21 -1.32 21 -2 21 C-2 20.34 -2 19.68 -2 19 C-1.34 19 -0.68 19 0 19 C0 14.71 0 10.42 0 6 C0.99 6 1.98 6 3 6 C1.74458443 3.48916886 0.49936512 3.12874554 -2 2 C-1.34 2 -0.68 2 0 2 C0 1.34 0 0.68 0 0 Z " fill="#B02CE5" transform="translate(96,53)"/>
<path d="M0 0 C2.875 -0.1875 2.875 -0.1875 6 0 C6.66 0.99 7.32 1.98 8 3 C8.78375 2.979375 9.5675 2.95875 10.375 2.9375 C13 3 13 3 17 7 C12.38 7 7.76 7 3 7 C2.01 8.98 1.02 10.96 0 13 C0.33 13.66 0.66 14.32 1 15 C-3.75 15.125 -3.75 15.125 -6 14 C-4.50829734 9.0276578 -2.39542583 4.58154261 0 0 Z " fill="#C426EB" transform="translate(63,41)"/>
<path d="M0 0 C0.66 0.33 1.32 0.66 2 1 C0.45454854 6.47932789 -2.15543212 11.11429181 -5 16 C-10.77378925 15.5188509 -14.95859836 13.81532819 -20 11 C-15.99647875 8.6984162 -13.5195293 9.07935514 -9 10 C-8.34 10.33 -7.68 10.66 -7 11 C-7.33 10.01 -7.66 9.02 -8 8 C-7.0625 5.8125 -7.0625 5.8125 -6 4 C-5.01 4 -4.02 4 -3 4 C-2.67 3.01 -2.34 2.02 -2 1 C-1.34 0.67 -0.68 0.34 0 0 Z " fill="#F808F8" transform="translate(48,167)"/>
<path d="M0 0 C6.7857936 0.54863863 13.35009036 1.54267938 20 3 C20 3.99 20 4.98 20 6 C15.90996141 7.14982602 11.96822949 7.11094256 7.75 7.0625 C7.00492188 7.05798828 6.25984375 7.05347656 5.4921875 7.04882812 C3.6614236 7.03709246 1.83070127 7.0191585 0 7 C-1.125 2.25 -1.125 2.25 0 0 Z " fill="#7B25D1" transform="translate(128,41)"/>
<path d="M0 0 C0.33 0.66 0.66 1.32 1 2 C1.66 2 2.32 2 3 2 C3.33 1.34 3.66 0.68 4 0 C5.5522083 4.6566249 4.11850644 8.82541302 3.1875 13.5625 C3.00896484 14.53380859 2.83042969 15.50511719 2.64648438 16.50585938 C2.46794922 17.43333984 2.28941406 18.36082031 2.10546875 19.31640625 C1.94199951 20.16662354 1.77853027 21.01684082 1.61010742 21.89282227 C1 24 1 24 -1 26 C-2.23076923 20.58461538 -2.23076923 20.58461538 -1.0625 17.625 C-0.711875 17.08875 -0.36125 16.5525 0 16 C-0.99 16.33 -1.98 16.66 -3 17 C-2.22095672 5.47835991 -2.22095672 5.47835991 0 0 Z " fill="#FBFCF9" transform="translate(91,128)"/>
<path d="M0 0 C2.97 0.495 2.97 0.495 6 1 C6 1.66 6 2.32 6 3 C5.34 3 4.68 3 4 3 C4.04640625 3.64066406 4.0928125 4.28132813 4.140625 4.94140625 C4.40560564 11.2914781 3.63447223 14.77544617 0 20 C-0.33 19.34 -0.66 18.68 -1 18 C-1.66 18 -2.32 18 -3 18 C-3 17.34 -3 16.68 -3 16 C-2.34 16 -1.68 16 -1 16 C-1.01160156 15.01257813 -1.02320312 14.02515625 -1.03515625 13.0078125 C-1.04417969 11.72648437 -1.05320312 10.44515625 -1.0625 9.125 C-1.07410156 7.84882812 -1.08570312 6.57265625 -1.09765625 5.2578125 C-1 2 -1 2 0 0 Z " fill="#C820EC" transform="translate(81,88)"/>
<path d="M0 0 C0.99 0.66 1.98 1.32 3 2 C1.55676531 6.73789165 -0.37226733 10.98858151 -2.625 15.375 C-3.11226562 16.33599609 -3.11226562 16.33599609 -3.609375 17.31640625 C-4.40257407 18.87947501 -5.20077031 20.44000622 -6 22 C-7.55078125 20.82421875 -7.55078125 20.82421875 -9 19 C-8.85546875 16.51953125 -8.85546875 16.51953125 -8.1875 13.8125 C-7.97480469 12.91144531 -7.76210938 12.01039063 -7.54296875 11.08203125 C-7.27419922 10.05142578 -7.27419922 10.05142578 -7 9 C-6.37609375 8.91878906 -5.7521875 8.83757812 -5.109375 8.75390625 C-2.8507553 8.20570556 -2.8507553 8.20570556 -1.953125 6.15234375 C-1.60507812 5.05599609 -1.60507812 5.05599609 -1.25 3.9375 C-1.00765625 3.20402344 -0.7653125 2.47054687 -0.515625 1.71484375 C-0.34546875 1.14894531 -0.1753125 0.58304688 0 0 Z " fill="#F804F6" transform="translate(57,146)"/>
<path d="M0 0 C0.33 0 0.66 0 1 0 C2.38766641 15.78406847 3.44038047 31.19474403 2 47 C1.67 47 1.34 47 1 47 C0.06254521 41.47582871 -0.1320925 36.16305293 -0.09765625 30.56640625 C-0.0962413 29.68846909 -0.09482635 28.81053192 -0.09336853 27.9059906 C-0.08780821 25.12479118 -0.07526321 22.34367474 -0.0625 19.5625 C-0.05747987 17.66731888 -0.05291786 15.77213648 -0.04882812 13.87695312 C-0.0378518 9.25127052 -0.02061482 4.62564929 0 0 Z " fill="#8512D3" transform="translate(165,88)"/>
<path d="M0 0 C0.66 0.33 1.32 0.66 2 1 C1.67 6.28 1.34 11.56 1 17 C-0.98 17 -2.96 17 -5 17 C-4.69147815 15.041036 -4.3780582 13.08284287 -4.0625 11.125 C-3.80146484 9.48917969 -3.80146484 9.48917969 -3.53515625 7.8203125 C-3 5 -3 5 -2 3 C-1.34 3 -0.68 3 0 3 C0 2.01 0 1.02 0 0 Z " fill="#F8F4FA" transform="translate(160,47)"/>
<path d="M0 0 C1.79257315 6.10009969 -0.04110287 12.1233086 -2 18 C-3.98 18 -5.96 18 -8 18 C-6.65150163 13.64029169 -4.95092154 9.68658562 -2.875 5.625 C-2.33617187 4.56539062 -1.79734375 3.50578125 -1.2421875 2.4140625 C-0.83226562 1.61742187 -0.42234375 0.82078125 0 0 Z " fill="#F8ECF8" transform="translate(55,158)"/>
<path d="M0 0 C2.58361518 -0.05407567 5.16609255 -0.093707 7.75 -0.125 C8.84441406 -0.15013672 8.84441406 -0.15013672 9.9609375 -0.17578125 C16.90003453 -0.23886395 16.90003453 -0.23886395 20 2 C20.33 2.66 20.66 3.32 21 4 C14.07 4 7.14 4 0 4 C0 3.67 0 3.34 0 3 C2.64 3 5.28 3 8 3 C8 2.34 8 1.68 8 1 C5.36 1 2.72 1 0 1 C0 0.67 0 0.34 0 0 Z " fill="#8610D4" transform="translate(184,178)"/>
<path d="M0 0 C8.415 1.485 8.415 1.485 17 3 C17 3.33 17 3.66 17 4 C8.57142857 5.28571429 8.57142857 5.28571429 4 4 C4 4.66 4 5.32 4 6 C2.02 6.33 0.04 6.66 -2 7 C-1.125 2.25 -1.125 2.25 0 0 Z " fill="#F8F1FA" transform="translate(90,176)"/>
<path d="M0 0 C1.134375 0.020625 2.26875 0.04125 3.4375 0.0625 C2.4475 0.3925 1.4575 0.7225 0.4375 1.0625 C1.0975 3.0425 1.7575 5.0225 2.4375 7.0625 C1.7775 7.7225 1.1175 8.3825 0.4375 9.0625 C-0.8825 9.0625 -2.2025 9.0625 -3.5625 9.0625 C-5.5625 6.0625 -5.5625 6.0625 -5.25 3.4375 C-4.16890523 -0.29719104 -4.15169538 0.07283676 0 0 Z " fill="#8325D2" transform="translate(118.5625,38.9375)"/>
<path d="M0 0 C0.144375 0.61875 0.28875 1.2375 0.4375 1.875 C0.93152225 4.03258322 0.93152225 4.03258322 2 6 C2 8.62113708 1.68707555 10.50935112 1 13 C-1.31 13.33 -3.62 13.66 -6 14 C-4.50829734 9.0276578 -2.39542583 4.58154261 0 0 Z " fill="#D122EC" transform="translate(54,59)"/>
<path d="M0 0 C0.99 0.33 1.98 0.66 3 1 C2.814375 1.721875 2.62875 2.44375 2.4375 3.1875 C1.98004693 6.12826973 2.26483643 8.14103058 3 11 C0.69 10.67 -1.62 10.34 -4 10 C-2.8905928 6.51329166 -1.73662334 3.22515763 0 0 Z " fill="#F906F7" transform="translate(13,141)"/>
<path d="M0 0 C0.66 0.33 1.32 0.66 2 1 C2 4.66666667 2 8.33333333 2 12 C-2 12 -2 12 -5 11 C-3.77472971 6.94718288 -2.30119506 3.55639236 0 0 Z " fill="#F60CF7" transform="translate(38,92)"/>
<path d="M0 0 C2.33294775 -0.04241723 4.66702567 -0.04092937 7 0 C8 1 8 1 8.0625 4.0625 C8.041875 5.031875 8.02125 6.00125 8 7 C6.02 6.34 4.04 5.68 2 5 C1.67 5.66 1.34 6.32 1 7 C0.67 4.69 0.34 2.38 0 0 Z " fill="#6A04C7" transform="translate(200,41)"/>
<path d="M0 0 C1.5 1.125 1.5 1.125 3 3 C3.3125 6.0625 3.3125 6.0625 3 9 C2.34 9.66 1.68 10.32 1 11 C-1.625 10.625 -1.625 10.625 -4 10 C-2.8905928 6.51329166 -1.73662334 3.22515763 0 0 Z " fill="#FA08F6" transform="translate(21,125)"/>
<path d="M0 0 C0.66 0.66 1.32 1.32 2 2 C1.64700993 5.44165321 0.95418308 7.06872538 -1 10 C-0.67 10.99 -0.34 11.98 0 13 C-1.98 13 -3.96 13 -6 13 C-4.31326082 8.50202887 -2.18326108 4.27113698 0 0 Z " fill="#F6F2F5" transform="translate(77,115)"/>
<path d="M0 0 C2.31 0.33 4.62 0.66 7 1 C6.67 2.65 6.34 4.3 6 6 C3.6568787 5.74438677 1.32156597 5.40729228 -1 5 C-1.33 4.34 -1.66 3.68 -2 3 C-1.34 3 -0.68 3 0 3 C0 2.01 0 1.02 0 0 Z " fill="#F9F4F6" transform="translate(26,178)"/>
<path d="M0 0 C2.64 0.99 5.28 1.98 8 3 C8 3.99 8 4.98 8 6 C7.278125 5.814375 6.55625 5.62875 5.8125 5.4375 C2.87173027 4.98004693 0.85896942 5.26483643 -2 6 C-2.33 5.34 -2.66 4.68 -3 4 C-2.01 3.34 -1.02 2.68 0 2 C0 1.34 0 0.68 0 0 Z " fill="#FAEEF6" transform="translate(11,169)"/>
<path d="M0 0 C0.33 0 0.66 0 1 0 C1.054138 2.24973447 1.09285491 4.49984383 1.125 6.75 C1.14820312 8.00296875 1.17140625 9.2559375 1.1953125 10.546875 C1.01537302 13.72820492 0.68998582 15.36521896 -1 18 C-2.04559253 11.41276707 -1.83292414 6.40766041 0 0 Z " fill="#A32CE1" transform="translate(94,138)"/>
<path d="M0 0 C5.28 0.33 10.56 0.66 16 1 C16 1.66 16 2.32 16 3 C6.03852337 4.44799047 6.03852337 4.44799047 1.8125 2.625 C1.214375 2.08875 0.61625 1.5525 0 1 C0 0.67 0 0.34 0 0 Z " fill="#A127DB" transform="translate(112,178)"/>
<path d="M0 0 C0.66 0.33 1.32 0.66 2 1 C2 3.64 2 6.28 2 9 C0.02 9.33 -1.96 9.66 -4 10 C-2.8905928 6.51329166 -1.73662334 3.22515763 0 0 Z " fill="#F9E4F7" transform="translate(60,148)"/>
<path d="M0 0 C1.32 1.32 2.64 2.64 4 4 C-1.28 3.01 -6.56 2.02 -12 1 C-12 0.67 -12 0.34 -12 0 C-7.68216516 -0.92525032 -4.27858892 -1.20916644 0 0 Z " fill="#EDE0F5" transform="translate(150,42)"/>
<path d="M0 0 C0.33 0.66 0.66 1.32 1 2 C1.66 2 2.32 2 3 2 C3.29296875 8.0546875 3.29296875 8.0546875 3 10 C2.01 10.66 1.02 11.32 0 12 C-0.76173392 7.6835078 -1.16063604 4.25566547 0 0 Z " fill="#A835E2" transform="translate(99,110)"/>
<path d="M0 0 C1.98 0 3.96 0 6 0 C6 0.66 6 1.32 6 2 C6.66 2 7.32 2 8 2 C8.33 2.99 8.66 3.98 9 5 C7.35 5 5.7 5 4 5 C3.67 4.01 3.34 3.02 3 2 C2.34 3.32 1.68 4.64 1 6 C0.4465236 3.92446352 0 2.15634036 0 0 Z " fill="#D71DF7" transform="translate(72,104)"/>
<path d="M0 0 C2.44576827 3.66865241 2.23607254 5.67200343 2 10 C1.67 10.66 1.34 11.32 1 12 C0.01 12 -0.98 12 -2 12 C-1.34 8.04 -0.68 4.08 0 0 Z " fill="#9A32E3" transform="translate(107,70)"/>
<path d="M0 0 C1.21236328 0.01353516 1.21236328 0.01353516 2.44921875 0.02734375 C3.37154297 0.04474609 3.37154297 0.04474609 4.3125 0.0625 C2.625 2.125 2.625 2.125 0.3125 4.0625 C-3.21074572 3.89063436 -4.71341724 3.04522184 -7.6875 1.0625 C-4.80538698 0.10179566 -2.98899956 -0.04331883 0 0 Z " fill="#F909F5" transform="translate(19.6875,167.9375)"/>
<path d="M0 0 C0.33 0 0.66 0 1 0 C1 5.28 1 10.56 1 16 C-1.49505962 13.50494038 -1.35948376 12.32671112 -1.625 8.875 C-1.69976562 7.96492187 -1.77453125 7.05484375 -1.8515625 6.1171875 C-1.92503906 5.06917969 -1.92503906 5.06917969 -2 4 C-1.34 4 -0.68 4 0 4 C0 2.68 0 1.36 0 0 Z " fill="#9F26E5" transform="translate(130,160)"/>
<path d="M0 0 C0.99 0 1.98 0 3 0 C2.14285714 8.57142857 2.14285714 8.57142857 0 12 C-1.53166168 7.91556885 -0.63081652 4.20544343 0 0 Z " fill="#781ED6" transform="translate(147,88)"/>
<path d="M0 0 C0.928125 1.175625 0.928125 1.175625 1.875 2.375 C3.89858661 4.96837647 3.89858661 4.96837647 6 7 C4.35 7.33 2.7 7.66 1 8 C1 7.34 1 6.68 1 6 C0.01 5.67 -0.98 5.34 -2 5 C-1.34 3.35 -0.68 1.7 0 0 Z " fill="#F7EAF8" transform="translate(162,176)"/>
<path d="M0 0 C-0.66 2.97 -1.32 5.94 -2 9 C-2.33 8.34 -2.66 7.68 -3 7 C-3.66 7 -4.32 7 -5 7 C-5.33 6.01 -5.66 5.02 -6 4 C-2.25 0 -2.25 0 0 0 Z " fill="#FBDFFB" transform="translate(6,155)"/>
<path d="M0 0 C0.66 0.33 1.32 0.66 2 1 C1.34 5.29 0.68 9.58 0 14 C-0.33 14 -0.66 14 -1 14 C-1.02694851 12.04174127 -1.04637218 10.08337774 -1.0625 8.125 C-1.07410156 7.03445312 -1.08570312 5.94390625 -1.09765625 4.8203125 C-1 2 -1 2 0 0 Z " fill="#F5EAF8" transform="translate(94,128)"/>
<path d="M0 0 C0.99 0.33 1.98 0.66 3 1 C1.84414715 4.91211733 0.64465038 7.8745041 -2 11 C-1 3.57142857 -1 3.57142857 0 0 Z " fill="#F9F1F9" transform="translate(59,42)"/>
<path d="M0 0 C1.46726798 3.81489674 0.43336419 6.29011622 -1 10 C-1.99 10 -2.98 10 -4 10 C-2.8905928 6.51329166 -1.73662334 3.22515763 0 0 Z " fill="#FBDCF8" transform="translate(55,158)"/>
<path d="M0 0 C1.125 1.625 1.125 1.625 2 4 C1.125 7.25 1.125 7.25 0 10 C-0.66 9.34 -1.32 8.68 -2 8 C-1.69347955 5.0574037 -1.32728846 2.65457692 0 0 Z " fill="#F9EFFD" transform="translate(19,121)"/>
<path d="M0 0 C1.125 1.625 1.125 1.625 2 4 C1.125 7.25 1.125 7.25 0 10 C-0.66 9.67 -1.32 9.34 -2 9 C-1.125 2.25 -1.125 2.25 0 0 Z " fill="#DC1AEF" transform="translate(45,77)"/>
<path d="M0 0 C-0.33 1.32 -0.66 2.64 -1 4 C-3.31 4.33 -5.62 4.66 -8 5 C-7.625 3.0625 -7.625 3.0625 -7 1 C-4.53721199 -0.231394 -2.7204945 -0.07159196 0 0 Z " fill="#DA1CF2" transform="translate(56,68)"/>
<path d="M0 0 C1.31223496 3.93670488 0.24296256 6.12488144 -1 10 C-1.66 9.34 -2.32 8.68 -3 8 C-2.64700993 4.55834679 -1.95418308 2.93127462 0 0 Z " fill="#F5E7F5" transform="translate(92,144)"/>
<path d="M0 0 C0.66 0 1.32 0 2 0 C2 0.99 2 1.98 2 3 C1.01 3 0.02 3 -1 3 C-1.33 4.65 -1.66 6.3 -2 8 C-2.66 7.67 -3.32 7.34 -4 7 C-4 6.01 -4 5.02 -4 4 C-3.34 4 -2.68 4 -2 4 C-1.34 2.68 -0.68 1.36 0 0 Z " fill="#F308F8" transform="translate(62,138)"/>
<path d="M0 0 C1.231394 3.69418201 0.64432764 6.2056261 0 10 C-0.99 10 -1.98 10 -3 10 C-2.25 3.375 -2.25 3.375 0 0 Z " fill="#9F2DE3" transform="translate(104,93)"/>
<path d="M0 0 C0.66 0 1.32 0 2 0 C2 2.31 2 4.62 2 7 C0.33333333 7 -1.33333333 7 -3 7 C-1.125 2.25 -1.125 2.25 0 0 Z " fill="#F4EFF4" transform="translate(69,131)"/>
<path d="M0 0 C-0.11362262 1.4800841 -0.24122908 2.95910074 -0.375 4.4375 C-0.47941406 5.67306641 -0.47941406 5.67306641 -0.5859375 6.93359375 C-0.72257812 7.61550781 -0.85921875 8.29742187 -1 9 C-1.99 9.495 -1.99 9.495 -3 10 C-3 7.03 -3 4.06 -3 1 C-1 0 -1 0 0 0 Z " fill="#CB1BF3" transform="translate(65,44)"/>
<path d="M0 0 C2.875 -0.125 2.875 -0.125 6 0 C6.66 0.66 7.32 1.32 8 2 C4.71303767 2.79953138 3.28976808 3.09658936 0 2 C0 1.34 0 0.68 0 0 Z " fill="#A83DDE" transform="translate(122,181)"/>
<path d="M0 0 C0.66 0 1.32 0 2 0 C2 1.32 2 2.64 2 4 C-0.31 3.67 -2.62 3.34 -5 3 C-4.360625 2.690625 -3.72125 2.38125 -3.0625 2.0625 C-1.06389179 1.1654837 -1.06389179 1.1654837 0 0 Z " fill="#FA03F8" transform="translate(30,116)"/>
<path d="M0 0 C0.99 0.33 1.98 0.66 3 1 C1.8125 3.5 1.8125 3.5 0 6 C-2.6875 6.3125 -2.6875 6.3125 -5 6 C-3.68 5.67 -2.36 5.34 -1 5 C-0.67 3.35 -0.34 1.7 0 0 Z " fill="#F528F4" transform="translate(43,177)"/>
<path d="M0 0 C1.32 0.33 2.64 0.66 4 1 C3.67 1.66 3.34 2.32 3 3 C2.34 3 1.68 3 1 3 C1 3.66 1 4.32 1 5 C0.01 4.67 -0.98 4.34 -2 4 C-2 3.34 -2 2.68 -2 2 C-1.34 2 -0.68 2 0 2 C0 1.34 0 0.68 0 0 Z " fill="#AB32E0" transform="translate(90,171)"/>
<path d="M0 0 C0.66 0 1.32 0 2 0 C2.75 1.75 2.75 1.75 3 4 C1.0625 6.25 1.0625 6.25 -1 8 C-2 6 -2 6 -1.0625 2.875 C-0.5365625 1.451875 -0.5365625 1.451875 0 0 Z " fill="#B92DF2" transform="translate(100,61)"/>
<path d="M0 0 C2.31 0 4.62 0 7 0 C7.33 0.99 7.66 1.98 8 3 C7.01 3.495 7.01 3.495 6 4 C3.96855359 3.06553465 1.96466413 2.06775224 0 1 C0 0.67 0 0.34 0 0 Z " fill="#F3EAF8" transform="translate(91,50)"/>
</svg>
